{"asset":{"version":"2.0","generator":"Blockbench 4.7.2 glTF exporter"},"scenes":[{"nodes":[1],"name":"blockbench_export"}],"scene":0,"nodes":[{"name":"cube","mesh":0},{"children":[0]}],"bufferViews":[{"buffer":0,"byteOffset":0,"byteLength":1776,"target":34962,"byteStride":12},{"buffer":0,"byteOffset":1776,"byteLength":1776,"target":34962,"byteStride":12},{"buffer":0,"byteOffset":3552,"byteLength":1184,"target":34962,"byteStride":8},{"buffer":0,"byteOffset":4736,"byteLength":396,"target":34963}],"buffers":[{"byteLength":5132,"uri":"data:application/octet-stream;base64,"}],"accessors":[{"bufferView":0,"componentType":5126,"count":148,"max":[0.25,0.625,0.5],"min":[-0.25,0,-0.5],"type":"VEC3"},{"bufferView":1,"componentType":5126,"count":148,"max":[1,1,1],"min":[-1,-1,-1],"type":"VEC3"},{"bufferView":2,"componentType":5126,"count":148,"max":[0.99609375,0.19140625],"min":[0.87109375,0.12890625],"type":"VEC2"},{"bufferView":3,"componentType":5123,"count":198,"max":[147],"min":[0],"type":"SCALAR"}],"materials":[{"pbrMetallicRoughness":{"metallicFactor":0,"roughnessFactor":1,"baseColorTexture":{"index":0}},"alphaMode":"MASK","alphaCutoff":0.05,"doubleSided":true}],"textures":[{"sampler":0,"source":0,"name":"texture.png"}],"samplers":[{"magFilter":9728,"minFilter":9728,"wrapS":33071,"wrapT":33071}],"images":[{"mimeType":"image/png","uri":"file:///C:/_dev/_/tw/assets/tinyworld/texture.png?31"}],"meshes":[{"primitives":[{"mode":4,"attributes":{"POSITION":0,"NORMAL":1,"TEXCOORD_0":2},"indices":3,"material":0}]}]}