{"asset":{"version":"2.0","generator":"Blockbench 4.12.6 glTF exporter"},"scenes":[{"nodes":[1],"name":"blockbench_export"}],"scene":0,"nodes":[{"name":"cube","mesh":0},{"children":[0]}],"bufferViews":[{"buffer":0,"byteOffset":0,"byteLength":1104,"target":34962,"byteStride":12},{"buffer":0,"byteOffset":1104,"byteLength":1104,"target":34962,"byteStride":12},{"buffer":0,"byteOffset":2208,"byteLength":736,"target":34962,"byteStride":8},{"buffer":0,"byteOffset":2944,"byteLength":276,"target":34963}],"buffers":[{"byteLength":3220,"uri":"data:application/octet-stream;base64,"}],"accessors":[{"bufferView":0,"componentType":5126,"count":92,"max":[0.6325825452804565,1.5,0.5625],"min":[-0.6325825452804565,-0.5,-0.5716968774795532],"type":"VEC3"},{"bufferView":1,"componentType":5126,"count":92,"max":[1,1,1],"min":[-1,0,-1],"type":"VEC3"},{"bufferView":2,"componentType":5126,"count":92,"max":[0.5,0.44140625],"min":[0,0.0078125],"type":"VEC2"},{"bufferView":3,"componentType":5123,"count":138,"max":[91],"min":[0],"type":"SCALAR"}],"materials":[{"pbrMetallicRoughness":{"metallicFactor":0,"roughnessFactor":1,"baseColorTexture":{"index":0}},"alphaMode":"MASK","alphaCutoff":0.05}],"textures":[{"sampler":0,"source":0,"name":"texture.png"}],"samplers":[{"magFilter":9728,"minFilter":9728,"wrapS":33071,"wrapT":33071}],"images":[{"mimeType":"image/png","name":"texture.png","uri":"texture.png"}],"meshes":[{"primitives":[{"mode":4,"attributes":{"POSITION":0,"NORMAL":1,"TEXCOORD_0":2},"indices":3,"material":0}]}]}