{"asset":{"version":"2.0","generator":"Blockbench 4.12.5 glTF exporter"},"scenes":[{"nodes":[7],"name":"blockbench_export"}],"scene":0,"nodes":[{"name":"plane","mesh":0},{"translation":[-0.5,-3.885780586188048e-16,0.25],"name":"plane","mesh":1},{"translation":[0.8125,1.1102230246251565e-16,-0.375],"name":"plane","mesh":2},{"translation":[-0.5,0.0062500000000000056,-0.5],"name":"plane","mesh":3},{"translation":[0.5625,-1.0755285551056204e-16,0.4375],"name":"plane","mesh":4},{"translation":[0.11458333333333315,0.00625,-0.15625],"name":"plane","mesh":5},{"translation":[0.375,-0.006249999999999922,-0.6875],"name":"plane","mesh":6},{"children":[0,1,2,3,4,5,6]}],"bufferViews":[{"buffer":0,"byteOffset":0,"byteLength":48,"target":34962,"byteStride":12},{"buffer":0,"byteOffset":48,"byteLength":48,"target":34962,"byteStride":12},{"buffer":0,"byteOffset":96,"byteLength":32,"target":34962,"byteStride":8},{"buffer":0,"byteOffset":128,"byteLength":12,"target":34963},{"buffer":0,"byteOffset":140,"byteLength":48,"target":34962,"byteStride":12},{"buffer":0,"byteOffset":188,"byteLength":48,"target":34962,"byteStride":12},{"buffer":0,"byteOffset":236,"byteLength":32,"target":34962,"byteStride":8},{"buffer":0,"byteOffset":268,"byteLength":12,"target":34963},{"buffer":0,"byteOffset":280,"byteLength":48,"target":34962,"byteStride":12},{"buffer":0,"byteOffset":328,"byteLength":48,"target":34962,"byteStride":12},{"buffer":0,"byteOffset":376,"byteLength":32,"target":34962,"byteStride":8},{"buffer":0,"byteOffset":408,"byteLength":12,"target":34963},{"buffer":0,"byteOffset":420,"byteLength":48,"target":34962,"byteStride":12},{"buffer":0,"byteOffset":468,"byteLength":48,"target":34962,"byteStride":12},{"buffer":0,"byteOffset":516,"byteLength":32,"target":34962,"byteStride":8},{"buffer":0,"byteOffset":548,"byteLength":12,"target":34963},{"buffer":0,"byteOffset":560,"byteLength":48,"target":34962,"byteStride":12},{"buffer":0,"byteOffset":608,"byteLength":48,"target":34962,"byteStride":12},{"buffer":0,"byteOffset":656,"byteLength":32,"target":34962,"byteStride":8},{"buffer":0,"byteOffset":688,"byteLength":12,"target":34963},{"buffer":0,"byteOffset":700,"byteLength":288,"target":34962,"byteStride":12},{"buffer":0,"byteOffset":988,"byteLength":288,"target":34962,"byteStride":12},{"buffer":0,"byteOffset":1276,"byteLength":192,"target":34962,"byteStride":8},{"buffer":0,"byteOffset":1468,"byteLength":72,"target":34963},{"buffer":0,"byteOffset":1540,"byteLength":48,"target":34962,"byteStride":12},{"buffer":0,"byteOffset":1588,"byteLength":48,"target":34962,"byteStride":12},{"buffer":0,"byteOffset":1636,"byteLength":32,"target":34962,"byteStride":8},{"buffer":0,"byteOffset":1668,"byteLength":12,"target":34963}],"buffers":[{"byteLength":1680,"uri":"data:application/octet-stream;base64,"}],"accessors":[{"bufferView":0,"componentType":5126,"count":4,"max":[0.4375,1.4375,1.1102230246251565e-16],"min":[-0.4375,2.465190328815662e-32,-1.1102230246251565e-16],"type":"VEC3"},{"bufferView":1,"componentType":5126,"count":4,"max":[0,1.5446581499891087e-16,1],"min":[0,1.5446581499891087e-16,1],"type":"VEC3"},{"bufferView":2,"componentType":5126,"count":4,"max":[0.91796875,0.3046875],"min":[0.86328125,0.21484375],"type":"VEC2"},{"bufferView":3,"componentType":5123,"count":6,"max":[3],"min":[0],"type":"SCALAR"},{"bufferView":4,"componentType":5126,"count":4,"max":[0.4375,1.1875,0],"min":[-0.4375,3.885780586188048e-16,0],"type":"VEC3"},{"bufferView":5,"componentType":5126,"count":4,"max":[0,0,1],"min":[0,0,1],"type":"VEC3"},{"bufferView":6,"componentType":5126,"count":4,"max":[0.8671875,0.25],"min":[0.8125,0.17578125],"type":"VEC2"},{"bufferView":7,"componentType":5123,"count":6,"max":[3],"min":[0],"type":"SCALAR"},{"bufferView":8,"componentType":5126,"count":4,"max":[0.34375,1.0625,0],"min":[-0.34375,-1.1102230246251565e-16,0],"type":"VEC3"},{"bufferView":9,"componentType":5126,"count":4,"max":[0,0,1],"min":[0,0,1],"type":"VEC3"},{"bufferView":10,"componentType":5126,"count":4,"max":[0.73828125,0.25],"min":[0.6953125,0.18359375],"type":"VEC2"},{"bufferView":11,"componentType":5123,"count":6,"max":[3],"min":[0],"type":"SCALAR"},{"bufferView":12,"componentType":5126,"count":4,"max":[0.4375,1.181249976158142,1.1102230246251565e-16],"min":[-0.4375,-0.0062500000931322575,-1.1102230246251565e-16],"type":"VEC3"},{"bufferView":13,"componentType":5126,"count":4,"max":[0,1.8698493185633055e-16,1],"min":[0,1.8698493185633055e-16,1],"type":"VEC3"},{"bufferView":14,"componentType":5126,"count":4,"max":[0.80859375,0.25],"min":[0.75390625,0.17578125],"type":"VEC2"},{"bufferView":15,"componentType":5123,"count":6,"max":[3],"min":[0],"type":"SCALAR"},{"bufferView":16,"componentType":5126,"count":4,"max":[0.34375,1.0625,1.1102230246251565e-16],"min":[-0.34375,1.0755285551056204e-16,-1.1102230246251565e-16],"type":"VEC3"},{"bufferView":17,"componentType":5126,"count":4,"max":[0,2.0898315835502298e-16,1],"min":[0,2.0898315835502298e-16,1],"type":"VEC3"},{"bufferView":18,"componentType":5126,"count":4,"max":[0.73828125,0.25],"min":[0.6953125,0.18359375],"type":"VEC2"},{"bufferView":19,"componentType":5123,"count":6,"max":[3],"min":[0],"type":"SCALAR"},{"bufferView":20,"componentType":5126,"count":24,"max":[1.1354166269302368,2.949029909160572e-17,1.09375],"min":[-1.1145833730697632,-2.949029909160572e-17,-1.09375],"type":"VEC3"},{"bufferView":21,"componentType":5126,"count":24,"max":[0,1,0],"min":[0,1,-5.898059818321144e-17],"type":"VEC3"},{"bufferView":22,"componentType":5126,"count":24,"max":[0.4375,0.18359375],"min":[0.375,0.12109375],"type":"VEC2"},{"bufferView":23,"componentType":5123,"count":36,"max":[23],"min":[0],"type":"SCALAR"},{"bufferView":24,"componentType":5126,"count":4,"max":[0.4375,1.443750023841858,1.1102230246251565e-16],"min":[-0.4375,0.0062500000931322575,-1.1102230246251565e-16],"type":"VEC3"},{"bufferView":25,"componentType":5126,"count":4,"max":[0,1.5446581499891087e-16,1],"min":[0,1.5446581499891087e-16,1],"type":"VEC3"},{"bufferView":26,"componentType":5126,"count":4,"max":[0.91796875,0.3046875],"min":[0.86328125,0.21484375],"type":"VEC2"},{"bufferView":27,"componentType":5123,"count":6,"max":[3],"min":[0],"type":"SCALAR"}],"materials":[{"pbrMetallicRoughness":{"metallicFactor":0,"roughnessFactor":1,"baseColorTexture":{"index":0}},"alphaMode":"MASK","alphaCutoff":0.05},{"pbrMetallicRoughness":{"metallicFactor":0,"roughnessFactor":1,"baseColorTexture":{"index":1}},"alphaMode":"MASK","alphaCutoff":0.05}],"textures":[{"sampler":0,"source":0,"name":"texture.png"},{"sampler":1,"source":1,"name":"texture.png"}],"samplers":[{"magFilter":9728,"minFilter":9728,"wrapS":33071,"wrapT":33071},{"magFilter":9728,"minFilter":9728,"wrapS":33071,"wrapT":33071}],"images":[{"mimeType":"image/png","name":"texture.png","uri":"texture.png"},{"mimeType":"image/png","name":"texture.png","uri":"texture.png"}],"meshes":[{"primitives":[{"mode":4,"attributes":{"POSITION":0,"NORMAL":1,"TEXCOORD_0":2},"indices":3,"material":0}]},{"primitives":[{"mode":4,"attributes":{"POSITION":4,"NORMAL":5,"TEXCOORD_0":6},"indices":7,"material":0}]},{"primitives":[{"mode":4,"attributes":{"POSITION":8,"NORMAL":9,"TEXCOORD_0":10},"indices":11,"material":0}]},{"primitives":[{"mode":4,"attributes":{"POSITION":12,"NORMAL":13,"TEXCOORD_0":14},"indices":15,"material":0}]},{"primitives":[{"mode":4,"attributes":{"POSITION":16,"NORMAL":17,"TEXCOORD_0":18},"indices":19,"material":0}]},{"primitives":[{"mode":4,"attributes":{"POSITION":20,"NORMAL":21,"TEXCOORD_0":22},"indices":23,"material":1}]},{"primitives":[{"mode":4,"attributes":{"POSITION":24,"NORMAL":25,"TEXCOORD_0":26},"indices":27,"material":0}]}]}