{"asset":{"version":"2.0","generator":"Blockbench 4.7.0 glTF exporter"},"scenes":[{"nodes":[1],"name":"blockbench_export"}],"scene":0,"nodes":[{"name":"pyramid","mesh":0},{"children":[0]}],"bufferViews":[{"buffer":0,"byteOffset":0,"byteLength":720,"target":34962,"byteStride":12},{"buffer":0,"byteOffset":720,"byteLength":720,"target":34962,"byteStride":12},{"buffer":0,"byteOffset":1440,"byteLength":480,"target":34962,"byteStride":8},{"buffer":0,"byteOffset":1920,"byteLength":120,"target":34963}],"buffers":[{"byteLength":2040,"uri":"data:application/octet-stream;base64,"}],"accessors":[{"bufferView":0,"componentType":5126,"count":60,"max":[0.5,0.8125,0.5],"min":[-0.5,0.0625,-0.4375],"type":"VEC3"},{"bufferView":1,"componentType":5126,"count":60,"max":[0.9805806875228882,0.2873478829860687,0.9805806875228882],"min":[-0.9805806875228882,0.1961161345243454,-0.9805806875228882],"type":"VEC3"},{"bufferView":2,"componentType":5126,"count":60,"max":[0.875,0.0625],"min":[0.8515625,0.015625],"type":"VEC2"},{"bufferView":3,"componentType":5123,"count":60,"max":[59],"min":[0],"type":"SCALAR"}],"materials":[{"pbrMetallicRoughness":{"metallicFactor":0,"roughnessFactor":1,"baseColorTexture":{"index":0}},"alphaMode":"MASK","alphaCutoff":0.05,"doubleSided":true}],"textures":[{"sampler":0,"source":0,"name":"texture.png"}],"samplers":[{"magFilter":9728,"minFilter":9728,"wrapS":33071,"wrapT":33071}],"images":[{"mimeType":"image/png","uri":"file:///C:/_dev/_/tw/assets/tinyworld/texture.png?28"}],"meshes":[{"primitives":[{"mode":4,"attributes":{"POSITION":0,"NORMAL":1,"TEXCOORD_0":2},"indices":3,"material":0}]}]}